# xmcd CD database file generated by freedbAccess_ocx
#
# Track frame offsets:
#       150
#       12217
#       33855
#       53347
#       69780
#       85900
#       102497
#       116555
#       132750
#       145547
#       164377
#       183602
#       199072
#       215170
#
# Disc length: 3114 seconds
#
# Revision: 0
# Processed by: cddbd v1.5.1PL2 Copyright (c) Steve Scherf et al.
# Submitted via: CDnGo 2.00
#
DISCID=b90c280e
DTITLE=Roberta Miranda - Gold
DYEAR=2002
DGENRE=Pop
TTITLE0=Atração Fatal
TTITLE1=Um Dia de Domingo (Ao Vivo)
TTITLE2=A Mulher Em Mim
TTITLE3=Nem Às Paredes Confesso
TTITLE4=Faz Amor Comigo
TTITLE5=Outra Vez (Ao Vivo)
TTITLE6=Deus Como Te Amo
TTITLE7=Só Nós Dois
TTITLE8=Garçom (Ao Vivo)
TTITLE9=Chora No Meu Colo
TTITLE10=Voz De Deus
TTITLE11=Cadê Você (Ao Vivo)
TTITLE12=Meu Dengo (Ao Vivo)
TTITLE13=A Rural II
EXTD=
EXTT0=
EXTT1=
EXTT2=
EXTT3=
EXTT4=
EXTT5=
EXTT6=
EXTT7=
EXTT8=
EXTT9=
EXTT10=
EXTT11=
EXTT12=
EXTT13=
PLAYORDER=
